<?xml version="1.0" encoding="utf-8"?>
<!-- Generator: Adobe Illustrator 18.0.0, SVG Export Plug-In . SVG Version: 6.00 Build 0)  -->
<!DOCTYPE svg PUBLIC "-//W3C//DTD SVG 1.1//EN" "http://www.w3.org/Graphics/SVG/1.1/DTD/svg11.dtd">
<svg version="1.1" id="Layer_1" xmlns="http://www.w3.org/2000/svg" xmlns:xlink="http://www.w3.org/1999/xlink" x="0px" y="0px"
	 viewBox="0 0 595.3 841.9" enable-background="new 0 0 595.3 841.9" xml:space="preserve">
<g>
	<path fill="#FFFFFF" d="M95.4,323.4h-6.8v-19.1h36.7v91.3h7.1v19.1H97.9l-2.5-5.4C93.5,411,87,416,76.9,416
		c-20.8,0-34.2-18.4-34.2-38.9c0-23,16-37.5,34.2-37.5c10.4,0,15.7,3.8,18.5,5.6V323.4z M85,395.3c5.7,0,11-7.2,10.4-18.8
		c0-10-5-17.7-10.6-17.7c-6.2,0-10.4,7.2-10.4,18.4C74.4,386,78.5,395.3,85,395.3z"/>
	<path fill="#FFFFFF" d="M179.5,414.7h-41.2v-19.3h6.2v-35.2h-6.2v-19.1h34.1v54.3h7.1V414.7z M158.3,304.6c10.2,0,16.2,8.2,16.2,15
		c0,8.1-5.7,14.9-16.2,14.9c-9.3,0-15.9-7.8-15.9-14.9C142.4,312.8,148,304.6,158.3,304.6z"/>
	<path fill="#FFFFFF" d="M194.5,415.6c3.4,2.9,14.4,9.4,25.6,9.4c13.2,0,17.1-7.6,17.1-13.8v-5c-2.1,2.6-7.8,8.1-17.2,8.1
		c-25.3,0-35.3-18.2-35.3-36.8c0-22.8,12.7-37.8,36.9-37.8c6.5,0,12.7,3.1,15.6,6l2.9-4.6h35v19.3h-8.8v44c0,24.4-15,40.3-45.9,40.5
		c-16.2-0.1-28.1-7.8-33.7-13L194.5,415.6z M226.6,395.3c5.7,0,11-7.2,10.5-18.8c0-10-5-17.7-10.6-17.7c-6.2,0-10.4,7.2-10.4,18.4
		C216,386,220.1,395.3,226.6,395.3z"/>
	<path fill="#FFFFFF" d="M322.3,414.7H281v-19.3h6.2v-35.2H281v-19.1h34.1v54.3h7.1V414.7z M301.1,304.6c10.2,0,16.2,8.2,16.2,15
		c0,8.1-5.7,14.9-16.2,14.9c-9.3,0-15.9-7.8-15.9-14.9C285.2,312.8,290.8,304.6,301.1,304.6z"/>
	<path fill="#FFFFFF" d="M328.2,341.1h7.9v-13.5l27.1-8.7v22.2h14v19.1h-14v26.2c0,5-1,11.8,4.7,11.8c1.9,0,6.5-1.3,9.3-2.5v18.8
		c-4.4,1.8-14.4,2.8-17.8,2.8c-22.1,0-22.8-12.1-23.3-30.9v-26.2h-7.9V341.1z"/>
	<path fill="#FFFFFF" d="M384.7,347.3c5.9-3.5,18.5-10.5,32.1-10.5c17.7,0,39.9,6.6,39.9,30.3v28.7h8.8v18.8H434l-3.5-6.6
		c-5.5,7.5-14.6,9.4-19.9,9.4c-14,0-29-7.5-29-24.6c0-16.6,14-27.1,30.6-27.1c8.7,0,13.8,4.3,14.6,5.1v-5.1c0-6.6-6-8.2-14-8.2
		c-8.7,0-16.3,3.7-21.9,6.8L384.7,347.3z M426.8,393.5v-5.6c-0.4-0.7-2.5-4.3-8.7-4.3c-5.9,0-8.5,3.2-8.5,7.8c0,4.1,3.4,6.9,7.8,6.9
		C421.8,398.4,425.4,395.7,426.8,393.5z"/>
	<path fill="#FFFFFF" d="M514.4,414.7h-43v-19.3h6.3v-72.1h-6.2v-19h34.1v91.1h8.7V414.7z"/>
</g>
<g>
	<path fill="#FFFFFF" d="M124.1,536.1v-19.1h6.2v-72h-6.2v-19.3h35.6v42.5c3.2-3.8,12.1-6.9,19.3-6.9c22.4,0,34.3,18.8,33.9,38.6
		c-0.4,22.7-13.3,37.8-34,37.8c-11.2,0-15.3-3.1-19.4-6.6l-2.2,5H124.1z M169.8,482c-5.7,0-11,7.2-10.5,18.8c0,10,5,17.7,10.6,17.7
		c6.2,0,10.5-7.2,10.5-18.4C180.4,491.3,176.3,482,169.8,482z"/>
	<path fill="#FFFFFF" d="M218.3,462.5h35.6v35.5c0,12.7,1.9,18.5,7.9,18.5c5.2,0,9.3-4.6,9.3-11.2v-23.4h-9.7v-19.4h38.1v54h7.2
		v19.6h-27.8l-4-9.3c-3.2,3.7-8.4,11.3-20.9,11.3c-22.2,0-29.6-11.5-29.6-35.9v-20.3h-6.2V462.5z"/>
	<path fill="#FFFFFF" d="M311.2,462.5h7.9v-13.5l27.1-8.7v22.2h14v19.1h-14v26.2c0,5-1,11.8,4.7,11.8c1.9,0,6.5-1.3,9.3-2.5v18.8
		c-4.4,1.8-14.4,2.8-17.8,2.8c-22.1,0-22.8-12.1-23.3-30.9v-26.2h-7.9V462.5z"/>
	<path fill="#FFFFFF" d="M364.6,462.5h7.9v-13.5l27.1-8.7v22.2h14v19.1h-14v26.2c0,5-1,11.8,4.7,11.8c1.9,0,6.5-1.3,9.3-2.5v18.8
		c-4.4,1.8-14.4,2.8-17.8,2.8c-22.1,0-22.8-12.1-23.3-30.9v-26.2h-7.9V462.5z"/>
	<path fill="#FFFFFF" d="M493.4,525.9c-10.9,9.4-22.7,12.8-38,12.8c-18.3,0-38.9-11.6-38.9-39.9c0-24.1,17.4-38.4,39.6-38.4
		c17.5,0,30.9,9,35.2,21.3c1.8,5.1,3.4,16.5,0.3,24.9h-46.4c0.9,4,2.8,12.1,15.2,12.1c5,0,12.7-0.4,20.6-7.1L493.4,525.9z
		 M445.7,492.1h22.2c-0.1-5.6-1.5-11.8-10.9-11.8C448,480.3,446,488.4,445.7,492.1z"/>
	<path fill="#FFFFFF" d="M540.9,536.1h-41.7v-19.3h6.5v-35.2h-6.3v-19.1h27.7l4.4,9.4c3.8-7.1,7.7-13.1,22.8-13.1v26.5
		c-13.3,0-20.8,3.4-20.8,16.3v15.2h7.4V536.1z"/>
</g>
</svg>
